<?xml version="1.0" standalone="no"?>
<!DOCTYPE svg PUBLIC "-//W3C//DTD SVG 20010904//EN"
 "http://www.w3.org/TR/2001/REC-SVG-20010904/DTD/svg10.dtd">
<svg version="1.0" xmlns="http://www.w3.org/2000/svg"
 width="1456.000000pt" height="1456.000000pt" viewBox="0 0 1456.000000 1456.000000"
 preserveAspectRatio="xMidYMid meet">
<metadata>
Created by potrace 1.11, written by Peter Selinger 2001-2013
</metadata>
<g transform="translate(0.000000,1456.000000) scale(0.100000,-0.100000)"
fill="#000000" stroke="none">
<path d="M4424 9546 c-40 -18 -102 -91 -109 -130 -3 -17 -4 -486 -3 -1042 l3
-1011 28 -40 28 -41 -30 -43 c-55 -78 -51 -184 9 -253 l29 -33 -24 -23 c-14
-13 -30 -40 -36 -59 -12 -44 -8 -1727 5 -1753 8 -17 -50 -18 -1138 -18 l-1146
0 -32 29 -33 29 0 394 c0 385 0 394 22 440 12 25 27 49 33 53 5 3 10 19 10 36
l0 29 913 2 912 3 9 1253 c7 993 6 1255 -4 1267 -10 11 -36 15 -111 15 -75 0
-101 4 -113 16 -25 24 -155 81 -249 108 -434 126 -1007 107 -1377 -44 l-99
-41 -38 19 c-98 50 -317 108 -503 133 -141 19 -489 17 -630 -5 -240 -36 -495
-117 -539 -170 -10 -12 -33 -16 -96 -16 -46 0 -90 -3 -99 -6 -14 -6 -16 -126
-16 -1258 0 -960 3 -1255 12 -1264 9 -9 225 -12 910 -12 l898 0 0 -34 c0 -18
7 -39 15 -46 8 -7 15 -20 15 -29 0 -9 6 -23 13 -29 9 -10 13 -112 17 -415 3
-221 9 -411 14 -422 5 -11 17 -32 27 -46 10 -14 15 -29 11 -33 -4 -4 -2 -6 3
-5 6 2 30 -6 55 -18 l45 -23 1263 0 c1130 -1 1266 1 1295 15 50 24 63 37 89
85 l23 45 3 883 2 882 750 0 750 0 0 -879 c0 -596 3 -889 11 -908 12 -33 64
-90 99 -108 67 -34 146 -26 215 21 l38 25 21 -20 c54 -51 58 -51 616 -51 499
0 522 1 559 20 51 26 97 82 110 136 8 30 11 626 11 2013 l0 1971 110 0 110 0
2 -2003 3 -2004 27 -39 c15 -21 44 -50 65 -64 l37 -25 1955 -3 c1076 -1 1971
0 1989 3 49 9 127 88 142 144 23 86 -13 180 -88 231 l-36 25 -1043 3 c-982 2
-1043 3 -1043 20 -4 424 3 1128 11 1143 22 41 69 59 157 59 48 0 82 -4 82 -10
0 -5 7 -10 15 -10 8 0 23 -4 33 -9 9 -5 29 -14 45 -20 15 -6 27 -18 27 -26 0
-9 -29 -67 -65 -129 -77 -134 -81 -162 -31 -212 l34 -34 2042 2 2042 3 24 28
c48 56 40 79 -133 385 l-158 277 -5 941 -5 941 -27 35 c-56 74 91 68 -1749 68
l-1652 0 -44 -25 c-26 -16 -51 -41 -63 -65 -20 -38 -20 -59 -20 -964 l0 -924
-22 -41 -22 -41 -62 0 c-46 0 -68 -5 -87 -20 -14 -11 -31 -20 -38 -20 -7 0
-21 -7 -31 -16 -13 -13 -47 -19 -130 -24 -144 -9 -151 -13 -250 -123 -1 -1 -5
-267 -8 -592 l-5 -590 -115 0 -115 0 -5 2005 c-5 1901 -6 2007 -23 2038 -24
44 -90 90 -141 97 -88 14 -180 -37 -217 -120 -18 -38 -19 -131 -19 -2158 0
-1827 2 -2122 14 -2152 l15 -35 -574 0 -574 0 -35 34 -36 33 0 1992 0 1991
406 0 c399 0 407 0 445 22 62 34 93 88 97 168 3 49 0 77 -13 104 -23 48 -85
102 -132 115 -51 14 -695 15 -746 0 -21 -5 -54 -24 -74 -42 -54 -47 -73 -97
-73 -194 l0 -82 -110 -3 -110 -3 0 70 c0 79 -14 138 -41 176 -10 14 -15 29
-11 33 4 4 3 7 -3 5 -5 -1 -36 10 -67 25 l-57 27 -358 -3 -358 -3 -48 -28
c-52 -31 -81 -69 -98 -132 -11 -36 -7 -80 12 -144 6 -22 51 -67 89 -90 34 -20
46 -21 443 -21 l407 0 0 -1976 c0 -1808 -1 -1979 -16 -2010 -31 -65 -19 -64
-579 -64 -353 0 -513 3 -528 11 -12 6 -30 21 -39 33 -16 19 -18 80 -19 836 0
448 -4 906 -7 1017 l-7 201 -31 44 -31 44 28 32 c15 17 33 48 38 69 7 25 11
364 11 1029 l0 990 -25 51 c-16 32 -41 61 -67 79 -37 26 -50 29 -119 29 -71 0
-80 -2 -116 -31 -21 -17 -48 -48 -60 -70 l-23 -39 0 -1047 0 -1048 -750 0
-750 0 0 1038 0 1037 -24 52 c-13 28 -22 54 -20 57 2 3 1 4 -2 2 -3 -3 -27 9
-52 25 -37 23 -57 29 -101 29 -31 -1 -70 -7 -87 -14z m158 -105 l33 -29 3
-1047 2 -1047 -81 4 c-77 3 -82 5 -110 36 l-29 32 0 1011 0 1011 29 29 c42 41
107 41 153 0z m1896 13 c54 -38 52 7 52 -1059 0 -1085 3 -1027 -61 -1059 -20
-10 -58 -16 -101 -16 l-68 0 2 1048 c3 863 5 1047 16 1044 8 -1 11 2 6 9 -4 7
3 20 17 30 30 23 106 25 137 3z m1284 -21 c31 -32 33 -36 33 -115 0 -46 -3
-84 -7 -85 -5 -2 -183 -3 -398 -3 l-390 0 -32 29 c-30 26 -33 35 -33 84 0 45
5 60 25 82 14 15 34 31 45 36 11 4 179 7 372 6 l353 -2 32 -32z m1233 23 c42
-18 65 -61 65 -121 0 -38 -5 -52 -29 -76 l-29 -29 -401 0 -401 0 0 75 c0 86
16 127 58 149 39 22 686 23 737 2z m625 4 c0 -5 6 -7 13 -5 15 6 40 -13 55
-42 9 -16 12 -513 12 -1990 0 -1082 0 -1978 0 -1990 0 -22 -4 -23 -80 -23 -53
0 -91 -5 -110 -15 l-30 -16 0 2001 c0 2192 -4 2041 58 2074 31 17 82 21 82 6z
m-5000 -2340 l0 -110 -76 0 c-112 0 -154 32 -154 116 0 28 8 44 34 70 33 33
36 34 115 34 l81 0 0 -110z m1590 0 l0 -110 -750 0 -750 0 0 110 0 110 750 0
750 0 0 -110z m260 93 c40 -23 50 -52 50 -147 l0 -84 -47 14 c-25 8 -75 14
-110 14 l-63 0 0 110 0 110 71 0 c48 0 80 -5 99 -17z m-1918 -312 c13 -5 32
-19 43 -31 20 -22 20 -38 23 -846 2 -714 0 -828 -13 -860 -9 -22 -19 -33 -26
-28 -8 4 -9 3 -5 -4 9 -15 -34 -32 -80 -32 -26 0 -44 8 -65 29 l-29 29 0 842
c0 575 3 848 11 861 5 11 25 29 42 40 31 19 50 19 99 0z m1883 9 c-3 -5 0 -7
8 -4 8 3 28 -7 46 -21 l31 -27 0 -851 c-1 -654 -3 -856 -13 -868 -7 -9 -27
-24 -46 -33 -44 -23 -92 -14 -131 24 l-30 29 0 881 0 880 71 0 c44 0 68 -4 64
-10z m3266 -1632 c3 -110 -10 -152 -52 -173 -103 -54 -210 58 -155 160 24 44
48 54 134 54 l72 1 1 -42z m328 -20 c-2 -81 -24 -135 -60 -153 -18 -10 -59
-15 -118 -15 l-90 0 15 28 c9 17 14 58 14 115 l0 87 121 0 120 0 -2 -62z
m2174 41 c57 -44 57 -144 0 -189 -25 -20 -38 -20 -1075 -20 l-1049 0 15 28 c8
16 18 67 22 115 l7 87 1027 0 c1021 0 1027 0 1053 -21z"/>
</g>
</svg>
